<svg
      xmlns="http://www.w3.org/2000/svg"
      viewBox="0 0 36.451 36.425"
      width="100%"
      height="100%"
    >
      <g
        id="Group_59939"
        data-name="Group 59939"
        transform="translate(-49.097 -16.659)"
      >
        <path
          id="Path_49046"
          data-name="Path 49046"
          d="M-1108.494-11.548s-7.427-4.178-13.5,3.948c0,0-4.26,5.983,1.642,13.1a5.479,5.479,0,0,0,1.07.921s.281.217.3-.393a19.142,19.142,0,0,1,.3-2.061,5.485,5.485,0,0,1,.716-1.505s.223-.446.621.172a10.018,10.018,0,0,0,1.878,1.655,8.2,8.2,0,0,0,3.657,1.035,8.719,8.719,0,0,0,1.492-.187l4.343,4.367s.291.282-.146.861a16.613,16.613,0,0,1-2.171,2.848l-.271.3,3.1,1.3s2.1.691,2.012,2.206A1.963,1.963,0,0,1-1105.017,19c-.361.033-4.275,0-4.275,0h-12.564s-6.769.331-13.24-5.855l-1.017,4.11s-.456,1.925-1.836,1.821a1.893,1.893,0,0,1-1.9-1.821c-.112-1.823,0-15.946,0-15.946s-.54-7.425,6.162-14.144c0,0,6.684-7.09,18.253-3.492a20.549,20.549,0,0,1,6.47,4.008l.537.6s.262.3.106.24A.954.954,0,0,1-1108.494-11.548Z"
          transform="translate(1189 34)"
          fill="#74b222"
        />
        <ellipse
          id="Ellipse_1576"
          data-name="Ellipse 1576"
          cx="1.082"
          cy="1.08"
          rx="1.082"
          ry="1.08"
          transform="translate(76.89 41.192)"
          fill="#0e0e0e"
        />
        <ellipse
          id="Ellipse_1577"
          data-name="Ellipse 1577"
          cx="1.804"
          cy="1.805"
          rx="1.804"
          ry="1.805"
          transform="translate(72.561 26.762)"
          fill="#74b222"
        />
      </g>
    </svg>